# Blender v2.80 (sub 75) OBJ File: ''
# www.blender.org
o Plane.001
v -0.500000 -0.250000 0.500000
v 0.500000 -0.250000 0.500000
v -0.500000 -0.250000 -0.500000
v 0.500000 -0.250000 -0.500000
v 0.000000 -0.250000 -0.280000
v -0.107151 -0.250000 -0.258686
v -0.197990 -0.250000 -0.197990
v -0.258686 -0.250000 -0.107151
v -0.280000 -0.250000 0.000000
v -0.258686 -0.250000 0.107151
v -0.197990 -0.250000 0.197990
v -0.107151 -0.250000 0.258686
v -0.000000 -0.250000 0.280000
v 0.107151 -0.250000 0.258686
v 0.197990 -0.250000 0.197990
v 0.258686 -0.250000 0.107151
v 0.280000 -0.250000 -0.000000
v 0.258686 -0.250000 -0.107151
v 0.197990 -0.250000 -0.197990
v 0.107151 -0.250000 -0.258686
v -0.500000 -0.750000 0.500000
v 0.500000 -0.750000 0.500000
v -0.500000 -0.750000 -0.500000
v 0.500000 -0.750000 -0.500000
v 0.000000 -0.740000 -0.280000
v -0.107151 -0.740000 -0.258686
v -0.197990 -0.740000 -0.197990
v -0.258686 -0.740000 -0.107151
v -0.280000 -0.740000 0.000000
v -0.258686 -0.740000 0.107151
v -0.197990 -0.740000 0.197990
v -0.107151 -0.740000 0.258686
v -0.000000 -0.740000 0.280000
v 0.107151 -0.740000 0.258686
v 0.197990 -0.740000 0.197990
v 0.258686 -0.740000 0.107151
v 0.280000 -0.740000 -0.000000
v 0.258686 -0.740000 -0.107151
v 0.197990 -0.740000 -0.197990
v 0.107151 -0.740000 -0.258686
vt 0.848995 0.848995
vt 1.000000 1.000000
vt 0.803575 0.879343
vt 0.750000 0.890000
vt 0.500000 1.000000
vt 0.696424 0.879343
vt 0.651005 0.848995
vt 0.620657 0.803576
vt 0.610000 0.750000
vt 0.500000 0.500000
vt 0.620657 0.696424
vt 0.651005 0.651005
vt 0.696424 0.620657
vt 0.750000 0.610000
vt 1.000000 0.500000
vt 0.803576 0.620657
vt 0.848995 0.651005
vt 0.879343 0.696424
vt 0.890000 0.750000
vt 0.879343 0.803576
vt 1.000000 0.500000
vt 0.000000 0.500000
vt 0.000000 0.000000
vt 1.000000 0.000000
vt 0.000000 0.500000
vt 0.000000 0.000000
vt 1.000000 0.000000
vt 1.000000 0.500000
vt 0.000000 0.500000
vt 0.000000 0.000000
vt 1.000000 0.000000
vt 1.000000 0.500000
vt 0.000000 0.500000
vt 0.000000 0.000000
vt 1.000000 0.000000
vt 0.218750 0.500000
vt 0.125000 0.500000
vt 0.125000 0.000000
vt 0.218750 0.000000
vt 0.218750 0.500000
vt 0.125000 0.500000
vt 0.125000 0.000000
vt 0.218750 0.000000
vt 0.875000 0.500000
vt 0.781250 0.500000
vt 0.781250 0.000000
vt 0.875000 0.000000
vt 0.875000 0.500000
vt 0.781250 0.500000
vt 0.781250 0.000000
vt 0.875000 0.000000
vt 0.687500 0.500000
vt 0.687500 0.000000
vt 0.687500 0.500000
vt 0.687500 0.000000
vt 0.593750 0.500000
vt 0.593750 0.000000
vt 0.593750 0.500000
vt 0.593750 0.000000
vt 0.500000 0.500000
vt 0.500000 0.000000
vt 0.500000 0.500000
vt 0.406250 0.500000
vt 0.406250 0.000000
vt 0.500000 0.000000
vt 0.406250 0.500000
vt 0.406250 0.000000
vt 0.312500 0.500000
vt 0.312500 0.000000
vt 0.312500 0.500000
vt 0.312500 0.000000
vt 0.696424 0.879343
vt 0.651005 0.848995
vt 0.620657 0.803576
vt 0.610000 0.750000
vt 0.620657 0.696424
vt 0.651005 0.651005
vt 0.696424 0.620657
vt 0.750000 0.610000
vt 0.803576 0.620657
vt 0.848995 0.651005
vt 0.879343 0.696424
vt 0.890000 0.750000
vt 0.879343 0.803576
vt 0.848995 0.848995
vt 0.803575 0.879343
vt 0.750000 0.890000
vt 0.000000 0.500000
vt 0.500000 0.500000
vt 0.500000 1.000000
vt 0.000000 1.000000
vn 0.0000 1.0000 0.0000
vn 0.0000 0.0000 -1.0000
vn 0.0000 0.0000 1.0000
vn 1.0000 0.0000 0.0000
vn -1.0000 0.0000 0.0000
vn 0.9808 0.0000 0.1951
vn -0.9808 0.0000 -0.1951
vn 0.9808 0.0000 -0.1951
vn -0.9808 0.0000 0.1951
vn 0.8315 0.0000 -0.5556
vn -0.8315 0.0000 0.5556
vn 0.5556 0.0000 -0.8315
vn -0.5556 0.0000 0.8315
vn 0.1951 0.0000 -0.9808
vn 0.1951 0.0000 0.9808
vn -0.1951 0.0000 0.9808
vn -0.1951 0.0000 -0.9808
vn 0.5556 0.0000 0.8315
vn -0.5556 0.0000 -0.8315
vn 0.8315 0.0000 0.5556
vn -0.8315 0.0000 -0.5556
vn 0.0000 -1.0000 0.0000
s off
f 19/1/1 4/2/1 20/3/1
f 20/3/1 4/2/1 5/4/1
f 4/2/1 3/5/1 5/4/1
f 5/4/1 3/5/1 6/6/1
f 6/6/1 3/5/1 7/7/1
f 7/7/1 3/5/1 8/8/1
f 8/8/1 3/5/1 9/9/1
f 3/5/1 1/10/1 9/9/1
f 9/9/1 1/10/1 10/11/1
f 10/11/1 1/10/1 11/12/1
f 11/12/1 1/10/1 12/13/1
f 12/13/1 1/10/1 13/14/1
f 1/10/1 2/15/1 13/14/1
f 13/14/1 2/15/1 14/16/1
f 14/16/1 2/15/1 15/17/1
f 15/17/1 2/15/1 16/18/1
f 16/18/1 2/15/1 17/19/1
f 2/15/1 4/2/1 17/19/1
f 17/19/1 4/2/1 18/20/1
f 18/20/1 4/2/1 19/1/1
f 3/21/2 4/22/2 24/23/2 23/24/2
f 2/15/3 1/25/3 21/26/3 22/27/3
f 4/28/4 2/29/4 22/30/4 24/31/4
f 1/32/5 3/33/5 23/34/5 21/35/5
f 8/36/6 9/37/6 29/38/6 28/39/6
f 16/40/7 17/41/7 37/42/7 36/43/7
f 9/44/8 10/45/8 30/46/8 29/47/8
f 17/48/9 18/49/9 38/50/9 37/51/9
f 10/45/10 11/52/10 31/53/10 30/46/10
f 18/49/11 19/54/11 39/55/11 38/50/11
f 11/52/12 12/56/12 32/57/12 31/53/12
f 19/54/13 20/58/13 40/59/13 39/55/13
f 12/56/14 13/60/14 33/61/14 32/57/14
f 5/62/15 6/63/15 26/64/15 25/65/15
f 20/58/16 5/62/16 25/65/16 40/59/16
f 13/60/17 14/66/17 34/67/17 33/61/17
f 6/63/18 7/68/18 27/69/18 26/64/18
f 14/66/19 15/70/19 35/71/19 34/67/19
f 7/68/20 8/36/20 28/39/20 27/69/20
f 15/70/21 16/40/21 36/43/21 35/71/21
f 26/72/1 27/73/1 28/74/1 29/75/1 30/76/1 31/77/1 32/78/1 33/79/1 34/80/1 35/81/1 36/82/1 37/83/1 38/84/1 39/85/1 40/86/1 25/87/1
f 23/88/22 24/89/22 22/90/22 21/91/22
