# Blender v2.80 (sub 75) OBJ File: ''
# www.blender.org
o Icosphere
v 0.103554 -0.250000 -0.250001
v -0.250001 -0.250000 -0.103554
v 0.250001 -0.250000 0.103554
v -0.103554 -0.250000 0.250001
v 0.250001 -0.250000 -0.103554
v -0.250001 -0.250000 0.103554
v -0.103554 -0.250000 -0.250001
v 0.103554 -0.250000 0.250001
v 0.103554 -0.200000 -0.250001
v -0.250001 -0.200000 -0.103554
v 0.250001 -0.200000 0.103554
v -0.103554 -0.200000 0.250001
v 0.250001 -0.200000 -0.103554
v -0.250001 -0.200000 0.103554
v -0.103554 -0.200000 -0.250001
v 0.103554 -0.200000 0.250001
v 0.000000 -0.250000 0.000000
v 0.000000 -0.200000 0.000000
vt 0.625000 1.000000
vt 0.000000 1.000000
vt 0.312500 0.250000
vt 1.000000 0.000000
vt 1.000000 0.250000
vt 0.000000 0.250000
vt 0.000000 0.000000
vt 1.000000 0.000000
vt 1.000000 0.250000
vt 0.000000 0.250000
vt 0.000000 0.000000
vt 1.000000 0.000000
vt 1.000000 0.250000
vt 0.000000 0.250000
vt 0.000000 0.000000
vt 1.000000 0.000000
vt 1.000000 0.250000
vt 0.000000 0.250000
vt 0.000000 0.000000
vt 1.000000 0.000000
vt 1.000000 0.250000
vt 0.000000 0.250000
vt 0.000000 0.000000
vt 1.000000 0.000000
vt 1.000000 0.250000
vt 0.000000 0.250000
vt 0.000000 0.000000
vt 1.000000 0.000000
vt 1.000000 0.250000
vt 0.000000 0.250000
vt 0.000000 0.000000
vt 1.000000 0.000000
vt 1.000000 0.250000
vt 0.000000 0.250000
vt 0.000000 0.000000
vt 0.000000 1.000000
vt 0.312500 0.250000
vt 0.625000 1.000000
vt 0.625000 1.000000
vt 0.000000 1.000000
vt 0.625000 1.000000
vt 0.000000 1.000000
vt 0.625000 1.000000
vt 0.000000 1.000000
vt 0.625000 1.000000
vt 0.000000 1.000000
vt 0.625000 1.000000
vt 0.000000 1.000000
vt 0.625000 1.000000
vt 0.000000 1.000000
vt 0.625000 1.000000
vt 0.000000 1.000000
vt 0.000000 1.000000
vt 0.625000 1.000000
vt 0.000000 1.000000
vt 0.625000 1.000000
vt 0.000000 1.000000
vt 0.625000 1.000000
vt 0.000000 1.000000
vt 0.625000 1.000000
vt 0.000000 1.000000
vt 0.625000 1.000000
vt 0.000000 1.000000
vt 0.625000 1.000000
vt 0.000000 1.000000
vt 0.625000 1.000000
vn 0.0000 -1.0000 0.0000
vn 0.0000 0.0000 -1.0000
vn 1.0000 0.0000 0.0000
vn -0.7071 0.0000 -0.7071
vn 0.7071 0.0000 -0.7071
vn 0.0000 0.0000 1.0000
vn -1.0000 0.0000 0.0000
vn 0.7071 0.0000 0.7071
vn -0.7071 0.0000 0.7071
vn 0.0000 1.0000 0.0000
s off
f 6/1/1 2/2/1 17/3/1
f 7/4/2 15/5/2 9/6/2 1/7/2
f 5/8/3 13/9/3 11/10/3 3/11/3
f 2/12/4 10/13/4 15/14/4 7/15/4
f 1/16/5 9/17/5 13/18/5 5/19/5
f 8/20/6 16/21/6 12/22/6 4/23/6
f 6/24/7 14/25/7 10/26/7 2/27/7
f 3/28/8 11/29/8 16/30/8 8/31/8
f 4/32/9 12/33/9 14/34/9 6/35/9
f 12/36/10 18/37/10 14/38/10
f 4/39/1 6/40/1 17/3/1
f 8/41/1 4/42/1 17/3/1
f 3/43/1 8/44/1 17/3/1
f 5/45/1 3/46/1 17/3/1
f 1/47/1 5/48/1 17/3/1
f 7/49/1 1/50/1 17/3/1
f 2/51/1 7/52/1 17/3/1
f 16/53/10 18/37/10 12/54/10
f 11/55/10 18/37/10 16/56/10
f 13/57/10 18/37/10 11/58/10
f 9/59/10 18/37/10 13/60/10
f 15/61/10 18/37/10 9/62/10
f 10/63/10 18/37/10 15/64/10
f 14/65/10 18/37/10 10/66/10
