# Blender v2.80 (sub 75) OBJ File: ''
# www.blender.org
o Cube.004_Cube.008
v 0.316549 0.316549 0.222695
v 0.288675 0.288675 -0.288675
v 0.000000 0.353554 -0.353554
v 0.336944 0.336944 -0.151453
v 0.349376 0.349376 -0.076632
v 0.353554 0.353554 0.000000
v 0.349376 0.349376 0.076632
v 0.194131 0.422300 -0.180344
v 0.209010 0.452058 0.000000
v 0.205259 0.444556 0.091693
v 0.102067 0.451118 -0.188495
v 0.108732 0.477776 -0.096022
v 0.110981 0.486773 0.000000
v 0.108732 0.477776 0.096022
v 0.000000 0.415735 -0.277785
v 0.000000 0.461940 -0.191342
v 0.000000 0.490393 -0.097545
v 0.000000 0.490393 0.097545
v -0.108732 0.477776 -0.096022
v 0.274242 0.274242 -0.274242
v 0.320097 0.320097 -0.143880
v 0.331908 0.331908 -0.072800
v 0.335876 0.335876 0.000000
v 0.331908 0.331908 0.072800
v 0.300722 0.300722 0.211560
v 0.184424 0.401185 -0.171326
v 0.198559 0.429455 0.000000
v 0.194996 0.422328 0.087109
v 0.103295 0.453887 -0.091221
v 0.096964 0.428562 -0.179070
v 0.103295 0.453887 0.091221
v 0.105432 0.462434 0.000000
v 0.000000 0.465873 0.092668
v 0.000000 0.438843 -0.181775
v 0.000000 0.465873 -0.092668
v -0.103295 0.453887 -0.091221
v 0.000000 0.335876 -0.335876
v 0.000000 0.394948 -0.263896
v 0.395962 0.300993 0.000000
v 0.376556 0.285457 0.000000
v 0.358378 0.338378 0.074220
v 0.340910 0.320910 0.070388
v 0.415885 0.256148 -0.087468
v 0.395398 0.242795 -0.083140
v 0.414867 0.208718 -0.177986
v 0.394462 0.197617 -0.169194
v 0.360656 0.334926 0.078527
v 0.343188 0.317458 0.074695
v 0.393921 0.254358 0.163425
v 0.374568 0.241193 0.154967
v 0.414791 0.207764 -0.179126
v 0.394415 0.197019 -0.169908
v 0.365267 0.221475 -0.254740
v 0.347038 0.210111 -0.242182
v 0.306534 0.246402 -0.306533
v 0.291337 0.233775 -0.291337
v 0.278930 0.237807 -0.298737
v 0.293456 0.250652 -0.314333
v 0.199147 0.312553 -0.294404
v 0.209311 0.329348 -0.309687
v 0.229339 0.313742 -0.313742
v 0.217639 0.298154 -0.298154
v -0.013815 0.297941 -0.365123
v -0.015087 0.313858 -0.384096
v 0.106112 0.339836 -0.310228
v 0.111264 0.358050 -0.326319
v 0.148318 0.328973 -0.306726
v 0.156219 0.346476 -0.322586
v 0.077345 0.331153 -0.331153
v 0.080368 0.348755 -0.348755
v -0.076264 0.481543 0.096477
v -0.072451 0.457466 0.091653
v -0.058130 0.473704 0.130218
v -0.055224 0.450018 0.123707
v 0.000000 0.467357 0.173483
v 0.000000 0.443989 0.164809
v -0.110006 0.482872 0.041636
v -0.104505 0.458728 0.039554
v -0.168191 0.435547 -0.048414
v -0.177043 0.458471 -0.050962
v -0.146393 0.439055 -0.089288
v -0.154098 0.462163 -0.093987
v -0.120580 0.456563 -0.150925
v -0.114551 0.433735 -0.143379
v -0.155613 0.387468 -0.217810
v -0.163803 0.407861 -0.229273
v -0.145455 0.372307 -0.252677
v -0.153111 0.391902 -0.265976
v -0.123570 0.323472 -0.323472
v -0.130074 0.340496 -0.340496
v -0.121751 0.313145 -0.365430
v -0.115664 0.297488 -0.347159
v 0.038213 0.446605 0.211888
v 0.036302 0.424275 0.201293
v -0.039979 0.292234 -0.398718
v -0.037444 0.277415 -0.379006
v 0.103407 0.456477 0.169904
v 0.098237 0.433653 0.161409
v 0.162311 0.448643 0.129756
v 0.154196 0.426211 0.123268
v 0.195307 0.424653 0.170972
v 0.185542 0.403420 0.162424
v 0.225551 0.382929 0.220018
v 0.214274 0.363782 0.209017
v 0.311631 0.319411 0.224421
v 0.296050 0.303441 0.213200
v 0.319256 0.311897 0.224328
v 0.303294 0.296303 0.213111
v 0.382019 0.227691 0.217663
v 0.362933 0.216315 0.206788
v 0.375212 0.204946 0.195192
v 0.394541 0.216086 0.205827
vt 1.000000 1.000000
vt 1.000000 0.750000
vt 0.750000 0.750000
vt 0.750000 0.976205
vt 0.844020 0.979335
vt 0.887123 1.000000
vt 0.879434 0.826648
vt 0.751019 0.771470
vt 0.750000 0.772242
vt 0.750000 1.000000
vt 1.000000 0.919301
vt 0.625000 0.828868
vt 0.625000 1.000000
vt 0.125000 0.991100
vt 0.990591 0.125000
vt 0.125000 1.000000
vt 1.000000 0.375000
vt 0.750000 0.375000
vt 0.750000 0.500000
vt 1.000000 0.500000
vt 1.000000 0.375000
vt 0.750000 0.375000
vt 0.750000 0.263214
vt 0.818244 0.177540
vt 0.990591 0.125000
vt 1.000000 0.125000
vt 0.500000 0.875000
vt 0.500000 0.750000
vt 0.625000 0.750000
vt 0.750000 0.750000
vt 0.750000 0.975726
vt 0.675364 0.969541
vt 0.631241 1.000000
vt 0.500000 1.000000
vt 0.625000 0.500000
vt 0.625000 0.625000
vt 0.625000 0.750000
vt 0.750000 0.263213
vt 0.699168 0.324755
vt 0.625000 0.275130
vt 0.625000 0.375000
vt 0.625000 0.375000
vt 0.625000 0.275130
vt 0.699168 0.324754
vt 0.750000 0.500000
vt 0.625000 0.500000
vt 0.500000 0.625000
vt 0.625000 0.625000
vt 0.500000 0.375000
vt 0.500000 0.625000
vt 0.375000 0.445799
vt 0.375000 0.625000
vt 0.316252 0.625000
vt 0.288491 0.568494
vt 0.500000 1.000000
vt 0.500000 0.875000
vt 0.283748 0.875000
vt 0.285716 1.000000
vt 0.412325 0.375000
vt 0.375000 0.445800
vt 0.375000 0.625000
vt 0.500000 0.375000
vt 0.412326 0.375000
vt 0.431669 0.330034
vt 0.500000 0.273800
vt 0.522324 0.923691
vt 0.367007 1.000000
vt 0.714284 1.000000
vt 0.690748 0.942011
vt 0.558093 0.884132
vt 0.288490 0.568494
vt 0.316252 0.625000
vt 1.000000 0.500000
vt 1.000000 0.625000
vt 1.000000 0.750000
vt 0.548176 0.218654
vt 0.500000 0.273800
vt 0.539298 0.933958
vt 0.614749 0.990513
vt 0.659746 0.959561
vt 0.659746 0.959561
vt 0.615644 0.990002
vt 0.539298 0.933958
vt 1.000000 0.625000
vt 0.500000 0.750000
vt 0.353889 0.700687
vt 0.278529 0.820494
vt 0.371578 0.996121
vt 0.250000 0.860768
vt 0.216473 0.831058
vt 0.218213 0.832600
vt 0.256630 0.867174
vt 0.371578 0.996121
vt 0.375000 1.000000
vt 0.375000 1.000000
vt 0.431669 0.330034
vt 0.283748 0.875000
vt 0.278529 0.820494
vt 0.353889 0.700687
vt 0.548176 0.218654
vt 0.632993 1.000000
vt 0.676198 0.970071
vt 0.625000 0.829769
vt 0.750000 0.773362
vt 0.750000 1.000000
vt 0.625000 1.000000
vt 0.500000 0.897717
vt 0.500000 1.000000
vt 0.375000 1.000000
vt 0.375000 0.971940
vt 0.381102 0.978219
vt 0.125000 0.991100
vt 0.180952 0.820878
vt 0.204487 0.795738
vt 0.260862 0.844689
vt 0.125000 1.000000
vt 1.000000 1.000000
vt 0.887588 1.000000
vt 0.843236 0.978740
vt 0.500000 0.896721
vt 0.381420 0.977074
vt 0.375000 0.970464
vt 0.375000 1.000000
vt 0.500000 1.000000
vt 0.781807 0.770577
vt 0.780880 0.771280
vt 0.680697 0.823611
vt 0.500000 0.916647
vt 0.427326 0.965108
vt 0.431078 0.962606
vt 0.531088 0.897968
vt 0.684449 0.822045
vt 0.782650 0.769939
vt 0.783231 0.769499
vt 0.112877 1.000000
vt 0.024675 0.916540
vt 0.000000 0.919301
vt 0.000000 1.000000
vt 1.000000 0.125000
vt 0.818244 0.177540
vt 0.000000 0.919914
vt 0.024716 0.917143
vt 0.112412 1.000000
vt 0.000000 1.000000
vt 0.875000 0.835230
vt 0.803899 0.788762
vt 0.803322 0.788385
vt 0.875000 0.835230
vt 0.000000 0.000000
vt 0.000000 0.000000
vt 0.000000 0.000000
vt 0.000000 0.000000
vt 0.000000 0.000000
vt 0.000000 0.000000
vt 0.000000 0.000000
vt 0.000000 0.000000
vt 0.548183 0.218641
vt 0.000000 0.000000
vt 0.000000 0.000000
vt 0.000000 0.000000
vt 0.000000 0.000000
vt 0.548183 0.218641
vt 0.000000 0.000000
vt 0.000000 0.000000
vt 0.000000 0.000000
vt 0.000000 0.000000
vt 0.000000 0.000000
vt 0.000000 0.000000
vt 0.000000 0.000000
vt 0.000000 0.000000
vt 0.000000 0.000000
vt 0.000000 0.000000
vt 0.000000 0.000000
vt 0.000000 0.000000
vt 0.205142 0.795019
vt 0.180909 0.820916
vt 0.261431 0.843844
vt 0.000000 0.000000
vt 0.000000 0.000000
vt 0.000000 0.000000
vt 0.000000 0.000000
vt 1.000000 0.931566
vt 0.000000 0.931566
vt 0.025529 0.928606
vt 0.025529 0.928606
vt 0.575089 0.893756
vt 0.575092 0.893753
vt 0.368759 1.000000
vt 0.523166 0.924204
vt 0.558938 0.884613
vt 0.690747 0.942011
vt 0.714283 1.000000
vt 0.871609 0.987819
vt 0.828472 0.967544
vt 0.828472 0.967544
vt 0.872818 0.988387
vt 0.000000 0.000000
vt 0.000000 0.000000
vt 0.000000 0.000000
vt 0.000000 0.000000
vt 0.751544 0.772192
vt 0.879214 0.827077
vt 1.000000 0.919914
vt 0.285717 1.000000
vt 0.734801 0.965428
vt 0.733994 0.965365
vt 0.000000 0.000000
vt 0.000000 0.000000
vt 0.000000 0.000000
vt 0.000000 0.000000
vt 0.000000 0.000000
vt 0.000000 0.000000
vt 0.000000 0.000000
vt 0.000000 0.000000
vn -0.5837 -0.6125 0.5330
vn -0.6500 -0.6888 0.3211
vn -0.4070 -0.8461 0.3442
vn -0.3256 -0.7955 0.5110
vn -0.4894 -0.7395 0.4623
vn -0.4977 -0.7069 0.5025
vn -0.7158 -0.5475 0.4334
vn -0.7400 -0.5525 0.3836
vn -0.6459 -0.5439 0.5357
vn -0.7924 -0.5773 0.1971
vn -0.6755 -0.7196 0.1608
vn -0.7184 -0.5828 -0.3798
vn -0.5600 -0.7570 -0.3368
vn -0.6207 -0.6421 -0.4500
vn -0.6785 -0.7175 -0.1577
vn -0.4508 -0.8744 -0.1794
vn -0.4528 -0.8912 0.0261
vn -0.6772 -0.7343 0.0463
vn 0.6783 0.7176 0.1578
vn 0.4508 0.8744 0.1794
vn 0.5055 0.8220 0.2624
vn 0.5565 0.7780 0.2915
vn 0.5600 0.7570 0.3368
vn 0.6205 0.6422 0.4501
vn 0.0121 0.8482 -0.5296
vn -0.0044 0.9116 -0.4112
vn 0.2190 0.8950 -0.3885
vn 0.4070 0.8461 -0.3441
vn 0.3255 0.7957 -0.5108
vn 0.1968 0.8208 -0.5363
vn 0.1525 0.7997 -0.5808
vn -0.0316 0.7324 -0.6802
vn -0.2174 -0.9761 0.0059
vn -0.2273 -0.9599 0.1638
vn -0.2190 -0.8950 0.3887
vn -0.5055 -0.8220 -0.2624
vn -0.3277 -0.9308 -0.1621
vn -0.1788 -0.9475 -0.2649
vn -0.2096 -0.9649 -0.1579
vn 0.2096 0.9649 0.1579
vn 0.1788 0.9475 0.2649
vn 0.3277 0.9308 0.1621
vn 0.4528 0.8912 -0.0261
vn 0.2174 0.9761 -0.0059
vn -0.0196 0.9843 -0.1752
vn 0.2273 0.9599 -0.1638
vn 0.0044 -0.9888 -0.1495
vn 0.0196 -0.9843 0.1752
vn -0.1337 0.9909 -0.0130
vn -0.1871 0.9598 -0.2094
vn -0.2615 0.9505 -0.1675
vn -0.3007 0.9525 -0.0477
vn 0.0310 -0.7323 0.6803
vn -0.0122 -0.8481 0.5297
vn 0.1659 -0.8553 0.4909
vn 0.1263 -0.7204 0.6820
vn 0.0991 -0.9904 -0.0960
vn 0.1337 -0.9909 0.0130
vn 0.1871 -0.9598 0.2094
vn -0.0044 0.9888 0.1495
vn -0.0991 0.9904 0.0960
vn -0.1122 0.9515 0.2864
vn 0.0493 0.9518 0.3029
vn 0.0859 -0.6336 0.7689
vn -0.1527 -0.7994 0.5811
vn 0.3007 -0.9525 0.0477
vn 0.2615 -0.9505 0.1675
vn 0.6772 0.7344 -0.0463
vn 0.6754 0.7197 -0.1608
vn 0.6499 0.6889 -0.3211
vn -0.1119 -0.9451 -0.3071
vn -0.0493 -0.9518 -0.3029
vn 0.6138 -0.5868 -0.5281
vn 0.4914 -0.6562 -0.5727
vn 0.6100 -0.5893 -0.5297
vn 0.0043 -0.9115 0.4112
vn 0.1719 -0.9018 0.3965
vn 0.6072 -0.4919 -0.6240
vn 0.1122 -0.9515 -0.2864
vn -0.1659 0.8553 -0.4909
vn -0.1719 0.9018 -0.3965
vn 0.1119 0.9451 0.3071
vn -0.1970 -0.8206 0.5365
vn 0.7921 0.5777 -0.1971
vn 0.7398 0.5528 -0.3836
vn 0.7910 0.6097 -0.0500
vn 0.7598 0.5982 0.2548
vn 0.7178 0.5832 0.3803
vn 0.7374 0.5844 0.3388
vn 0.5837 0.6126 -0.5329
vn 0.4979 0.7069 -0.5024
vn 0.4896 0.7394 -0.4622
vn -0.7911 -0.6096 0.0500
vn -0.7602 -0.5978 -0.2543
vn 0.5435 -0.6908 0.4769
vn -0.5186 -0.5220 0.6772
vn -0.5565 -0.7780 -0.2915
vn 0.6457 0.5442 -0.5357
vn 0.5187 0.5221 -0.6771
vn 0.2166 -0.8600 -0.4621
vn 0.3032 -0.8828 -0.3587
vn 0.2178 -0.8604 -0.4607
vn -0.9267 -0.3748 -0.0255
vn 0.5106 -0.3991 0.7616
vn -0.7761 0.1067 0.6215
vn -0.3095 -0.3255 0.8935
vn -0.4034 -0.7562 -0.5152
vn -0.7380 -0.5840 -0.3382
vn -0.8584 -0.0582 0.5097
vn 0.0164 -0.7052 0.7088
vn 0.1272 -0.8217 -0.5556
vn 0.7194 -0.5076 -0.4741
vn -0.0871 0.6337 -0.7687
vn -0.1268 0.7204 -0.6819
vn -0.4520 -0.4374 -0.7774
vn -0.8141 -0.3635 -0.4529
vn 0.7155 0.5479 -0.4334
vn -0.0635 -0.6539 -0.7539
vn -0.7570 -0.2412 0.6072
s 1
f 20/1/1 21/2/2 26/3/3 67/4/4 59/5/5 62/6/6
f 54/7/7 52/8/7 46/9/8 21/10/2 20/1/1 56/11/9
f 46/9/8 44/12/10 22/13/11 21/10/2
f 108/14/12 106/15/13 25/16/14
f 24/17/15 28/18/16 27/19/17 23/20/18
f 7/21/19 10/22/20 101/23/21 103/24/22 105/25/23 1/26/24
f 15/27/25 16/28/26 11/29/27 8/30/28 68/31/29 66/32/30 70/33/31 3/34/32
f 27/19/17 32/35/33 29/36/34 30/37/35 26/3/3
f 28/18/16 102/38/36 100/39/37 98/40/38 31/41/39 32/35/33 27/19/17
f 14/42/40 97/43/41 99/44/42 101/23/21 10/22/20 9/45/43 13/46/44
f 11/29/27 16/28/26 17/47/45 12/48/46
f 32/35/33 31/41/39 33/49/47 35/50/48 29/36/34
f 77/51/49 19/52/50 82/53/51 80/54/52
f 37/55/53 38/56/54 87/57/55 89/58/56
f 35/50/48 33/49/47 72/59/57 78/60/58 36/61/59
f 18/62/60 71/63/61 73/64/62 75/65/63
f 63/66/64 69/67/65 37/55/53 89/68/56 92/69/64 96/70/64
f 36/61/59 78/60/58 79/71/66 81/72/67
f 8/30/28 9/45/43 6/73/68 5/74/69 4/75/70
f 94/76/71 76/77/72 33/49/47 31/41/39 98/40/38
f 17/47/45 18/62/60 14/42/40 13/46/44 12/48/46
f 6/73/68 9/45/43 10/22/20 7/21/19
f 64/78/73 70/79/74 66/80/74 65/81/74 69/82/74 63/83/75
f 22/84/11 23/20/18 27/19/17 26/3/3 21/2/2
f 38/56/54 34/85/76 35/50/48 36/61/59 81/72/67 84/86/77 85/87/77 87/57/55
f 47/88/78 49/89/78 112/90/78 111/91/78 50/92/78 48/93/78 42/94/78 41/95/78
f 33/49/47 76/77/72 74/96/79 72/59/57
f 19/52/50 17/47/45 16/28/26 15/27/25 88/97/80 86/98/81 83/99/81 82/53/51
f 75/65/63 93/100/82 97/43/41 14/42/40 18/62/60
f 19/52/50 77/51/49 71/63/61 18/62/60 17/47/45
f 26/3/3 30/37/35 34/85/76 38/56/54 37/55/53 69/101/65 65/102/83 67/4/4
f 43/103/84 45/104/85 4/105/70 5/106/69
f 30/37/35 29/36/34 35/50/48 34/85/76
f 39/107/86 43/103/84 5/106/69 6/108/68 7/109/19 47/110/87 41/111/86
f 107/112/88 109/113/89 112/114/89 49/115/89 47/110/87 7/109/19 1/116/24
f 12/48/46 13/46/44 9/45/43 8/30/28 11/29/27
f 68/31/29 8/30/28 4/75/70 2/117/90 61/118/91 60/119/92
f 44/12/10 40/120/93 42/121/93 48/122/94 24/123/15 23/124/18 22/13/11
f 51/125/95 45/126/95 43/127/95 39/128/95 41/129/95 42/130/95 40/131/95 44/132/95 46/133/95 52/134/95
f 62/135/6 57/136/96 56/137/9 20/138/1
f 24/17/15 25/139/14 106/15/13 104/140/97 102/38/36 28/18/16
f 55/141/98 58/142/99 61/143/91 2/144/90
f 53/145/100 51/146/101 52/147/101 54/148/102
f 87/149/103 85/150/103 86/151/103 88/152/103 90/153/103 91/154/103 92/155/103 89/156/103
f 94/157/104 98/158/104 100/159/104 99/160/104 97/161/104 93/162/104
f 102/163/105 104/164/105 103/165/105 101/166/105 99/160/105 100/159/105
f 106/167/106 108/168/106 110/169/106 109/170/106 107/171/106 105/172/106 103/165/106 104/164/106
f 92/155/107 91/154/107 95/173/107 96/174/107
f 111/175/108 110/176/108 108/14/12 25/16/14 24/123/15 48/122/94 50/177/108
f 105/25/23 107/112/88 1/26/24
f 86/151/109 85/150/109 84/178/109 83/179/109
f 109/170/110 110/169/110 111/180/110 112/181/110
f 55/182/111 53/145/100 54/148/102 56/183/111 57/184/111 58/185/111
f 95/186/112 64/78/73 63/83/75 96/187/112
f 70/188/31 64/189/113 95/190/113 91/191/113 90/192/114 3/34/32
f 58/185/115 57/184/115 62/193/115 59/194/115 60/195/115 61/196/115
f 83/179/116 84/178/116 81/197/116 79/198/116 80/199/116 82/200/116
f 51/201/117 53/202/117 55/203/98 2/117/90 4/105/70 45/104/85
f 90/204/114 88/97/80 15/27/25 3/34/32
f 66/80/118 68/205/118 60/195/118 59/194/118 67/206/118 65/81/118
f 76/207/119 94/157/119 93/162/119 75/208/119 73/209/119 71/210/119 77/211/119 80/199/119 79/198/119 78/212/119 72/213/119 74/214/119
