# Blender v2.80 (sub 75) OBJ File: ''
# www.blender.org
o Cube.005_Cube.007
v 0.086603 0.000000 0.050000
v 0.000000 0.000000 -0.100000
v 0.000000 -0.200000 0.000000
v 0.000000 0.200000 0.000000
v -0.086603 0.000000 0.050000
vt 0.500000 1.000000
vt 0.600000 0.500000
vt 0.900000 0.500000
vt 0.400000 0.500000
vt 0.500000 0.000000
vt 0.100000 0.500000
vt 0.500000 0.000000
vt 0.500000 1.000000
vn -0.8402 0.2425 -0.4851
vn 0.8402 0.2425 -0.4851
vn 0.0000 0.2425 0.9701
vn 0.8402 -0.2425 -0.4851
vn 0.0000 -0.2425 0.9701
vn -0.8402 -0.2425 -0.4851
s off
f 4/1/1 2/2/1 5/3/1
f 1/4/2 2/2/2 4/1/2
f 4/5/3 5/6/3 1/4/3
f 1/4/4 3/7/4 2/2/4
f 1/4/5 5/6/5 3/8/5
f 5/3/6 2/2/6 3/7/6
