# Blender v2.80 (sub 75) OBJ File: ''
# www.blender.org
o Cube
v 0.802566 1.847041 -0.009554
v 0.002566 1.847041 0.790446
v 0.002566 1.027706 0.790446
v 0.002566 1.847041 -0.809554
v 0.000000 2.000000 -1.000000
v 0.000000 2.000000 1.000000
v -1.000000 2.000000 0.000000
v 1.000000 2.000000 0.000000
v 0.000000 2.500000 0.000000
v 0.002566 1.205362 -0.809554
v 1.000000 1.028166 0.000000
v 0.000000 0.975831 1.000000
v -1.000000 1.016305 0.000000
v 0.000000 1.197901 -1.000000
v 0.671662 1.250765 -0.328338
v 0.394858 0.830440 -0.605142
v 0.091237 1.292061 -0.908764
v -0.219227 1.163448 -0.780773
v -0.745113 0.833272 -0.254887
v -0.171387 0.817606 -0.828613
v -0.841924 1.161779 0.158076
v -0.559488 0.761312 0.440512
v -0.123247 1.064015 0.876753
v 0.228785 0.643251 0.771215
v 0.658580 0.493166 0.341420
v 0.884658 0.909994 0.115342
v -0.797434 1.847041 -0.009554
v 0.002566 2.247041 -0.009554
v 0.802566 1.069574 -0.009554
v -0.797434 1.060085 -0.009554
v 0.539895 1.247653 -0.272225
v 0.318452 0.911393 -0.493668
v 0.075555 1.280690 -0.736565
v -0.172816 1.177800 -0.634173
v -0.593525 0.913659 -0.213464
v -0.134544 0.901126 -0.672445
v -0.670974 1.176465 0.116906
v -0.445025 0.856091 0.342855
v -0.096032 1.098253 0.691848
v 0.185594 0.761642 0.607418
v 0.529430 0.641574 0.263581
v 0.710292 0.975036 0.082720
vt 0.500000 0.487915
vt 0.500000 1.000000
vt 1.000000 1.000000
vt 1.000000 0.514083
vt 0.942329 0.454997
vt 0.829290 0.246583
vt 0.614393 0.321626
vt 0.000000 0.508153
vt 0.000000 1.000000
vt 0.438376 0.532008
vt 0.220256 0.380656
vt 0.079038 0.580890
vt 0.500000 0.598951
vt 0.500000 1.000000
vt 1.000000 1.000000
vt 1.000000 0.508153
vt 0.872556 0.416636
vt 0.609613 0.581724
vt 0.585694 0.408803
vt 0.000000 0.514083
vt 0.000000 1.000000
vt 0.454382 0.646030
vt 0.302571 0.415220
vt 0.164169 0.625382
vt 1.000000 1.000000
vt 0.000000 1.000000
vt 0.500000 0.500000
vt 1.000000 1.000000
vt 0.000000 1.000000
vt 0.000000 1.000000
vt 1.000000 1.000000
vt 0.000000 1.000000
vt 1.000000 1.000000
vt 0.000000 1.000000
vt 0.500000 0.500000
vt 1.000000 1.000000
vt 0.000000 1.000000
vt 1.000000 1.000000
vt 0.872556 0.416636
vt 1.000000 0.508153
vt 0.000000 0.514083
vt 0.164169 0.625382
vt 0.302571 0.415220
vt 0.454382 0.646030
vt 0.500000 0.598951
vt 0.500000 1.000000
vt 0.585694 0.408803
vt 0.609613 0.581724
vt 0.000000 0.508153
vt 0.079038 0.580890
vt 0.220256 0.380656
vt 0.438376 0.532008
vt 0.500000 0.487915
vt 0.500000 1.000000
vt 0.614393 0.321626
vt 0.829290 0.246583
vt 0.942329 0.454997
vt 1.000000 0.514083
vn -0.7071 -0.0000 -0.7071
vn 0.7071 0.0000 -0.7071
vn 0.7071 0.0000 0.7071
vn -0.7071 -0.0000 0.7071
vn -0.4082 0.8165 -0.4082
vn 0.4082 0.8165 -0.4082
vn 0.4082 0.8165 0.4082
vn -0.4082 0.8165 0.4082
vn 0.4082 -0.8165 -0.4082
vn -0.4082 -0.8165 -0.4082
vn -0.4082 -0.8165 0.4082
vn 0.4082 -0.8165 0.4082
vn 0.1841 -0.7018 0.6881
vn -0.6046 -0.7127 -0.3557
vn 0.9123 -0.4095 0.0038
vn -0.0112 -0.4721 -0.8815
vn -0.9341 -0.1725 0.3126
vn -0.1645 -0.8850 -0.4355
vn -0.0984 -0.6442 -0.7585
vn 0.2015 -0.8128 0.5466
vn 0.3086 -0.6565 0.6883
vn -0.1300 -0.6310 -0.7648
vn -0.7949 -0.5963 -0.1118
vn 0.6072 -0.7925 -0.0574
vn 0.7093 -0.7047 0.0181
vn -0.4090 -0.8846 -0.2240
vn 0.4817 -0.8738 -0.0669
vn -0.8570 -0.4976 -0.1337
s off
f 3/1/1 2/2/1 1/3/1 29/4/1 42/5/1 41/6/1 40/7/1
f 30/8/2 27/9/2 2/2/2 3/1/2 39/10/2 38/11/2 37/12/2
f 10/13/3 4/14/3 27/15/3 30/16/3 35/17/3 34/18/3 36/19/3
f 29/20/4 1/21/4 4/14/4 10/13/4 33/22/4 32/23/4 31/24/4
f 5/25/5 7/26/5 9/27/5
f 8/28/6 5/29/6 9/27/6
f 8/30/7 9/27/7 6/31/7
f 6/32/8 9/27/8 7/33/8
f 2/34/9 27/15/9 28/35/9
f 1/21/10 2/36/10 28/35/10
f 1/3/11 28/35/11 4/37/11
f 4/38/12 28/35/12 27/9/12
f 19/39/13 35/17/13 30/16/13 13/40/13
f 11/41/2 15/42/2 16/43/2 17/44/2 14/45/2 5/46/2 8/30/2
f 14/45/1 20/47/1 18/48/1 19/39/1 13/40/1 7/33/1 5/46/1
f 13/49/4 21/50/4 22/51/4 23/52/4 12/53/4 6/54/4 7/26/4
f 12/53/3 24/55/3 25/56/3 26/57/3 11/58/3 8/28/3 6/54/3
f 24/55/14 40/7/14 41/6/14 25/56/14
f 14/45/15 10/13/15 36/19/15 20/47/15
f 25/56/16 41/6/16 42/5/16 26/57/16
f 20/47/17 36/19/17 34/18/17 18/48/17
f 11/41/18 29/20/18 31/24/18 15/42/18
f 26/57/19 42/5/19 29/4/19 11/58/19
f 13/49/20 30/8/20 37/12/20 21/50/20
f 15/42/21 31/24/21 32/23/21 16/43/21
f 21/50/22 37/12/22 38/11/22 22/51/22
f 16/43/23 32/23/23 33/22/23 17/44/23
f 22/51/24 38/11/24 39/10/24 23/52/24
f 17/44/25 33/22/25 10/13/25 14/45/25
f 23/52/26 39/10/26 3/1/26 12/53/26
f 18/48/27 34/18/27 35/17/27 19/39/27
f 12/53/28 3/1/28 40/7/28 24/55/28
